<?xml version="1.0" encoding="UTF-8"?>
<svg width="700px" height="400px" viewBox="0 0 700 400" version="1.1" xmlns="http://www.w3.org/2000/svg" xmlns:xlink="http://www.w3.org/1999/xlink">
    <title>2D cutaway diagram of two joined components. A green component in the center has ridges on either side that fit into the valleys of the grey components around the perimeter.</title>
    <defs>
        <style>
            #Group-2 {
                stroke: #000000;
            }
            @media(prefers-color-scheme: dark) {
                #Group-2 {
                    stroke: #ffffff;
                }
                #Group {
                    fill: #444;
                }
            }
        </style>
    </defs>
    <g id="Artboard" stroke="none" stroke-width="1" fill="none" fill-rule="evenodd">
        <g id="Group-2" transform="translate(26.030000, 30.700000)" fill-rule="nonzero" stroke-width="2">
            <g id="Group" transform="translate(0.000000, 158.579271)" fill="#D3D3D3">
                <polygon id="Path" transform="translate(571.507676, 89.522464) rotate(-90.000000) translate(-571.507676, -89.522464) " points="481.985213 155.242144 495.768501 165.014787 647.246851 165.014787 661.03014 155.242144 661.03014 51.2079239 647.246851 51.2079239 647.246851 27.5744627 636.358052 16.6560801 521.965985 16.6560801 512.170615 27.7057598 501.143984 27.7057598 491.348655 16.6560801 484.60405 16.6560801 481.985213 14.03014"></polygon>
                <polygon id="Path" transform="translate(75.492324, 89.522464) rotate(-90.000000) translate(-75.492324, -89.522464) " points="-14.03014 165.014787 -11.4113027 162.388847 -4.66669817 162.388847 5.12863072 151.339167 16.1552622 151.339167 25.9506324 162.388847 140.342699 162.388847 151.231498 151.470464 151.231498 127.837003 165.014787 127.837003 165.014787 23.8027835 151.231498 14.03014 -0.246852128 14.03014 -14.03014 23.8027835"></polygon>
            </g>
            <polygon id="Path" fill="#4D654A" transform="translate(323.386305, 168.845295) rotate(-90.000000) translate(-323.386305, -168.845295) " points="154.541011 341.604514 162.820192 341.604514 173.837616 349.890046 182.107589 349.890046 193.124986 341.604514 311.670509 341.604514 319.940483 349.896956 319.940483 367.863915 324.814254 374.774284 349.524935 374.774284 354.398706 367.863915 359.272477 374.774284 383.983159 374.774284 388.85693 367.863915 393.730701 374.774284 418.441382 374.774284 423.315153 367.863915 428.188924 374.774284 452.899605 374.774284 457.773376 367.863915 462.647148 374.774284 487.357829 374.774284 492.2316 367.863915 492.2316 288.773224 488.682403 285.214246 478.587522 275.092214 182.245422 275.092214 182.245422 62.5983747 478.587522 62.5983747 488.682403 52.476343 492.2316 48.9173648 492.2316 -30.173326 487.357829 -37.0836948 462.647148 -37.0836948 457.773376 -30.173326 452.899605 -37.0836948 428.188924 -37.0836948 423.315153 -30.173326 418.441382 -37.0836948 393.730701 -37.0836948 388.85693 -30.173326 383.983159 -37.0836948 359.272477 -37.0836948 354.398706 -30.173326 349.524935 -37.0836948 324.814254 -37.0836948 319.940483 -30.173326 319.940483 -12.2063672 311.670509 -3.91392467 193.124986 -3.91392467 182.107589 -12.1994568 173.837616 -12.1994568 162.820192 -3.91392467 154.541011 -3.91392467 154.541011 9.90681287 319.928078 9.90681287 319.940483 9.90681287 319.940483 20.2737481 175.215945 20.2737481 164.103126 31.4168559 154.541011 41.0048544 154.541011 296.685735 164.103126 306.273733 175.215945 317.416841 319.940483 317.416841 319.940483 327.783776 154.541011 327.783776"></polygon>
        </g>
    </g>
</svg>
